<svg xmlns="http://www.w3.org/2000/svg" viewBox="0 0 512 512">
  <defs>
    <linearGradient id="bg" x1="0" y1="0" x2="1" y2="1">
      <stop offset="0" stop-color="#8f0505"/>
      <stop offset=".5" stop-color="#b72626"/>
      <stop offset="1" stop-color="#8e1313"/>
    </linearGradient>
  </defs>
  <rect width="512" height="512" rx="96" fill="url(#bg)"/>
  <g transform="translate(-58.3, 61.4) scale(0.3561)">
    <polygon fill="#fff" points="870.42 670.88 870.42 782.99 293.17 782.99 293.17 541.09 403.54 541.09 403.54 670.88 870.42 670.88"/>
    <path fill="#fff" d="M870.42,310.9v114.49h-372.07c-7.14.13-40.25,1.52-66.94,28.62-31.15,31.67-28.37,72.86-27.87,78.76v8.31h-110.38v-40.01c1.87-22.56,8.45-61.5,34.39-99.58,57.9-85.07,160.79-90.15,174.29-90.6h368.57Z"/>
    <g transform="translate(-2396, 0)">
      <path fill="#fff" d="M3780.75,738.37c-56.84,43.92-118.61,45.16-139.43,44.62h-334.77v-112.11h344.53c9.48.38,45.05.57,75.3-25.83,16.59-14.47,24.88-31.1,28.87-41.03h-271.92v-62.93h384.38v7.46c.25,12.34.53,122.2-86.96,189.82Z"/>
      <path fill="#fff" d="M3867.71,310.9v230.19h-384.38v-50.61h271.92v-67.88h-299.79c-5.27.13-19.08,1.14-32.15,11.14-19.24,14.72-21.45,37.29-21.76,41.03v15.71h-95v-41.6c.69-16.66,4.33-30.24,8.89-41.16,39.41-94.12,193.13-96.75,200.73-96.82h351.55Z"/>
    </g>
  </g>
</svg>
