<?xml version="1.0" encoding="UTF-8"?>
<svg id="Layer_1" data-name="Layer 1" xmlns="http://www.w3.org/2000/svg" xmlns:xlink="http://www.w3.org/1999/xlink" viewBox="0 0 6151.43 1080">
  <defs>
    <style>
      .cls-1 {
        fill: #fff;
      }

      .cls-2 {
        fill: #333;
      }

      .cls-3 {
        fill: #747474;
      }

      .cls-4 {
        fill: #b72626;
      }

      .cls-5 {
        fill: url(#linear-gradient);
      }
    </style>
    <linearGradient id="linear-gradient" x1="4043.04" y1="540" x2="5873.94" y2="540" gradientUnits="userSpaceOnUse">
      <stop offset="0" stop-color="#8f0505"/>
      <stop offset=".5" stop-color="#e08383"/>
      <stop offset="1" stop-color="#8e1313"/>
    </linearGradient>
  </defs>
  <g>
    <path class="cls-5" d="M5872.01,212.96c-.16-.54-3.24-10.25-10.69-18.02,0,0-11.23-11.71-31.64-14.53-120.9-16.79-871.18-17.17-871.18-17.17,0,0-746.73-.41-872.7,17.61-4.92.7-19.42,2.76-30.11,14.09-9.04,9.58-11.77,21.99-12.63,31.1v630.11c0,4.57.67,8.95,1.94,13.07,0,0,3.08,10.03,10.69,18.02,11.96,12.53,31.07,14.34,35.83,14.72,171.93,14.12,866.99,14.79,866.99,14.79,0,0,710.24.7,868.29-14.18,19.2-1.81,28.81-9.81,32.59-13.49,10.12-9.9,13.39-23.26,14.57-32.94V226.04c0-4.57-.67-8.95-1.94-13.07ZM5860.65,856.15c0,24.28-19.67,43.98-43.95,43.98h-1716.41c-24.28,0-43.95-19.71-43.95-43.98V226.04c0-24.31,19.67-43.98,43.95-43.98h1716.41c24.28,0,43.95,19.67,43.95,43.98v630.11ZM4056.34,195.92c0-.6.04-1.2.12-1.78-.27.26-.53.53-.79.8-9.04,9.58-11.77,21.99-12.63,31.1v630.11c0,4.57.67,8.95,1.94,13.07,0,0,3.08,10.03,10.69,18.03.26.27.52.54.79.79-.08-.58-.12-1.17-.12-1.77V195.92ZM5817.82,900.12c-.37.01-.75.01-1.13.01h-1716.4c-.38,0-.76,0-1.13-.01h-19.36c5.33,1.29,9.74,1.69,11.7,1.85,171.92,14.12,866.99,14.79,866.99,14.79,0,0,710.24.7,868.29-14.19,4.94-.47,9.25-1.34,12.99-2.45h-21.95ZM5872,212.96c-.16-.54-3.23-10.25-10.69-18.02,0,0-.26-.27-.78-.74.07.56.11,1.14.11,1.72v690.35c0,.55-.03,1.09-.1,1.62,9.22-9.76,12.27-22.44,13.4-31.74V226.04c0-4.57-.67-8.95-1.94-13.08ZM5829.67,180.41c-120.9-16.79-871.18-17.17-871.18-17.17,0,0-746.73-.41-872.7,17.61-1.47.21-3.8.54-6.63,1.21h1758.53c-2.49-.69-5.16-1.26-8.02-1.65Z"/>
    <path class="cls-4" d="M5860.64,226.04v630.11c0,23.89-19.06,43.36-42.82,43.97h-1718.66c-23.76-.61-42.82-20.08-42.82-43.97V226.04c0-24.31,19.67-43.98,43.95-43.98h1716.4c24.28,0,43.95,19.67,43.95,43.98Z"/>
    <path class="cls-1" d="M4477.07,660.45c37.23-9.69,51.08-47.98,59.32-81.83l116.68,35.54c-16.88,75.47-64.25,133.97-142.8,147.52-44.72,7.01-90.07,5.57-134.06-5.08-33.77-8.18-62.02-25.02-85.01-51-26.79-30.27-44.98-65.4-52.23-105.9-8.31-46.45-7.94-93.8,3.19-139.68,17.55-72.32,65.87-123.24,137.36-140.82,47.6-11.7,97.37-11.56,144.91-.11,65.29,15.73,105.18,65.24,124.48,127.72l-117.29,26.23c-12-41.23-41.06-63.64-82.75-61.59-45.27,2.99-71.58,35.53-78.41,79.64-5.63,36.36-5.06,91.82,8.09,126.54,15.51,40.94,58.3,53.3,98.53,42.83Z"/>
    <path class="cls-1" d="M5091.65,436.98c-.85-4.38-.08-6.27-2.09-9.06l-82.01,338.06-97.88-.12-83.37-340.48-1.06,340.52-108.62.09-.04-455.29,174.82-.23,67.45,275.65,67.36-275.56,174.22.03v455.38s-108.79,0-108.79,0l.03-328.97Z"/>
    <path class="cls-1" d="M5603.09,733.43c-45.34,28.09-106.65,35.59-160.05,31.53-28.54-2.17-55.13-8.81-80.66-20.38-30.31-14.23-54.72-35.18-70.79-62.96-12.56-22.48-18.57-46.53-19.65-72.08l123.52-.04c2.25,25.44,18.91,45.84,45.06,53.16,21.43,6,44.52,4.86,64.9-3.07,12.26-5.53,20.29-15.17,21.12-26.39,1.95-26.34-25.11-35.83-49.78-42.96l-91.74-26.48c-56.56-16.33-96.25-46.49-103.51-103.55-6.01-47.19,13.83-92.23,56.34-119.42,43.77-27.99,102.63-34.13,154.72-28.41,83.01,10.73,147.56,57.23,151.93,137.98l-123.03-.09c-3.51-14.98-13.75-26.51-28.62-33.18-16.27-6.72-34.16-8.1-51.48-4.06-9.24,2.74-17.46,7.16-22.64,14.55-8.5,12.11-5.1,26.52,7.48,34.79,8.78,5.77,18.39,9.55,28.99,12.48l91.43,25.32c21.59,5.98,41.13,14.07,59.65,25.59,41.61,25.87,57.26,65.14,55.55,110.55-1.5,39.85-23.02,74.98-58.74,97.11Z"/>
  </g>
  <g id="LOWER">
    <polygon class="cls-2" points="870.42 670.88 870.42 782.99 293.17 782.99 293.17 541.09 403.54 541.09 403.54 670.88 870.42 670.88"/>
    <path id="O" class="cls-2" d="M1414.04,541.09v36.3c.03,1.55.03,3.81,0,6.54-.12,9.68-.72,18.98-1.15,22.56-1.56,12.63-9.79,22.88-15.34,29.8-20.08,25.07-47.39,31.42-53.91,32.75-8.64,1.78-16.03,2-21.14,1.84h-293.27v-129.79h-111.56v241.9h427.38c12.1-.41,84.31-4.19,136.16-65.81,41.59-49.38,44.21-105.16,44.4-121.22v-54.87h-111.56Z"/>
    <rect class="cls-2" x="1607.35" y="541.09" width="126.25" height="241.9"/>
    <path class="cls-2" d="M2223.83,782.92h-121.35l-175.79-178.91h-144.08v-62.93h408.89c-35.08,39.38-86.59,54.93-90.48,56.07-15.93,4.57-30.65,6.38-43.25,6.85l166.06,178.91Z"/>
    <path class="cls-2" d="M2870.62,670.88v112.11h-363.52c-12.47.67-108.57,4-173.36-72.76-41.13-48.77-47.42-103.51-48.73-123.95v-45.19h509.01v62.93h-385.78c1.93,8.5,7.17,25.96,22.2,41.38,25.22,25.93,58.21,25.67,64.54,25.48h375.65Z"/>
    <path class="cls-2" d="M3780.75,738.37c-56.84,43.92-118.61,45.16-139.43,44.62h-334.77v-112.11h344.53c9.48.38,45.05.57,75.3-25.83,16.59-14.47,24.88-31.1,28.87-41.03h-271.92v-62.93h384.38v7.46c.25,12.34.53,122.2-86.96,189.82Z"/>
  </g>
  <g id="UPPER">
    <path class="cls-3" d="M870.42,310.9v114.49h-372.07c-7.14.13-40.25,1.52-66.94,28.62-31.15,31.67-28.37,72.86-27.87,78.76v8.31h-110.38v-40.01c1.87-22.56,8.45-61.5,34.39-99.58,57.9-85.07,160.79-90.15,174.29-90.6h368.57Z"/>
    <path id="O-2" data-name="O" class="cls-3" d="M1136.79,310.9c-14.78.86-133.92,9.58-191.47,106.24-18.71,31.45-25.38,62.8-27.66,86.09v37.86h111.56v-18.82c.53-9.11,3.49-39.6,27.41-65.84,30.09-33.03,70.06-33.83,76.92-33.83h280.49v118.49h111.56v-230.19h-388.81Z"/>
    <path class="cls-3" d="M2223.83,310.9v148.38c-.06,6.54-.65,17.87-4.3,31.19-5.49,20.09-15.75,36.81-28.03,50.61h-408.89v-50.61h275.16c4.55.25,24.76.89,41.84-14.18,23.1-20.34,19.83-51.09,19.52-53.69h-385.53v118.49h-126.25v-230.19h616.48Z"/>
    <polygon class="cls-3" points="2391.49 422.6 2391.49 490.48 2794.01 490.48 2794.01 541.09 2285.01 541.09 2285.01 310.9 2870.62 310.9 2870.62 422.6 2391.49 422.6"/>
    <path class="cls-3" d="M3867.71,310.9v230.19h-384.38v-50.61h271.92v-67.88h-299.79c-5.27.13-19.08,1.14-32.15,11.14-19.24,14.72-21.45,37.29-21.76,41.03v15.71h-95v-41.6c.69-16.66,4.33-30.24,8.89-41.16,39.41-94.12,193.13-96.75,200.73-96.82h351.55Z"/>
  </g>
</svg>